<?xml version="1.0" encoding="UTF-8" standalone="no" ?>
<!DOCTYPE svg PUBLIC "-//W3C//DTD SVG 1.1//EN" "http://www.w3.org/Graphics/SVG/1.1/DTD/svg11.dtd">
<svg xmlns="http://www.w3.org/2000/svg" xmlns:xlink="http://www.w3.org/1999/xlink" version="1.1" width="1080" height="1080" viewBox="0 0 1080 1080" xml:space="preserve">
<desc>Created with Fabric.js 5.2.4</desc>
<defs>
</defs>
<rect x="0" y="0" width="100%" height="100%" fill="transparent"></rect>
<g transform="matrix(1 0 0 1 540 540)" id="54ab4da8-1e4c-4d34-a70f-950cd3360e0c"  >
<rect style="stroke: none; stroke-width: 1; stroke-dasharray: none; stroke-linecap: butt; stroke-dashoffset: 0; stroke-linejoin: miter; stroke-miterlimit: 4; fill: rgb(255,255,255); fill-rule: nonzero; opacity: 1; visibility: hidden;" vector-effect="non-scaling-stroke"  x="-540" y="-540" rx="0" ry="0" width="1080" height="1080" />
</g>
<g transform="matrix(1 0 0 1 540 540)" id="084366c9-d4dc-4098-b38d-73f63f5ff153"  >
</g>
<g transform="matrix(NaN NaN NaN NaN 0 0)"  >
<g style=""   >
</g>
</g>
<g transform="matrix(1 0 0 1 540 540)" id="1a0a92c7-df20-4b83-ba7c-4865749b2d3a"  >
<path style="stroke: rgb(0,0,0); stroke-width: 0; stroke-dasharray: none; stroke-linecap: butt; stroke-dashoffset: 0; stroke-linejoin: miter; stroke-miterlimit: 4; fill: rgb(255,255,255); fill-rule: nonzero; opacity: 1;" vector-effect="non-scaling-stroke"  transform=" translate(-256, -256)" d="M 304 48 C 304 21.490332008121914 282.5096679918781 0 256 0 C 229.49033200812192 0 208 21.490332008121907 208 47.99999999999999 C 208 74.50966799187809 229.49033200812192 96 256 96 C 282.5096679918781 96 304 74.50966799187809 304 48 z M 304 464 C 304 437.4903320081219 282.5096679918781 416 256 416 C 229.49033200812192 416 208 437.4903320081219 208 464 C 208 490.5096679918781 229.49033200812192 512 256 512 C 282.5096679918781 512 304 490.5096679918781 304 464 z M 48 304 C 74.50966799187809 304 96 282.5096679918781 96 256 C 96 229.49033200812192 74.50966799187809 208 48 208 C 21.490332008121914 208 0 229.49033200812192 0 256 C 0 282.5096679918781 21.490332008121914 304 48 304 z M 512 256 C 512 229.49033200812192 490.5096679918781 208 464 208 C 437.4903320081219 208 416 229.4903320081219 416 256 C 416 282.5096679918781 437.4903320081219 304 464 304 C 490.5096679918781 304 512 282.5096679918781 512 256 z M 142.9 437 C 161.65006725675545 418.2499327432446 161.65006725675542 387.85006725675544 142.89999999999998 369.1 C 124.14993274324455 350.3499327432446 93.75006725675544 350.3499327432446 75 369.1 C 56.24993274324458 387.8500672567555 56.249932743244585 418.2499327432446 75.00000000000003 437 C 93.75006725675547 455.7500672567554 124.14993274324459 455.7500672567554 142.90000000000003 437 z M 142.9 142.8 C 155.6420830167246 130.80233477486783 160.8441799892303 112.82039990420131 156.4758487300433 95.87276489310146 C 152.10751747085635 78.92512988200161 138.86123034925302 65.69835128340509 121.90717552997623 61.355002846495466 C 104.95312071069945 57.011654409585844 86.97887242128854 62.240248200927255 74.99999999999999 75 C 56.249932743244564 93.75006725675544 56.24993274324457 124.14993274324456 75 142.9 C 93.75006725675544 161.65006725675545 124.14993274324456 161.65006725675545 142.9 142.9 z M 369.1 437 C 387.85006725675544 455.7500672567554 418.2499327432446 455.7500672567554 437 437 C 455.7500672567554 418.2499327432446 455.7500672567554 387.85006725675544 437 369.1 C 418.2499327432446 350.3499327432446 387.85006725675544 350.3499327432446 369.1 369.1 C 350.3499327432446 387.85006725675544 350.3499327432446 418.2499327432446 369.1 437 z" stroke-linecap="round" />
</g>
</svg>